<?xml version="1.0" encoding="utf-8" standalone="no"?>
<!DOCTYPE svg PUBLIC "-//W3C//DTD SVG 1.1//EN"
  "http://www.w3.org/Graphics/SVG/1.1/DTD/svg11.dtd">
<!-- Created with matplotlib (http://matplotlib.org/) -->
<svg height="345pt" version="1.1" viewBox="0 0 460 345" width="460pt" xmlns="http://www.w3.org/2000/svg" xmlns:xlink="http://www.w3.org/1999/xlink">
 <defs>
  <style type="text/css">
*{stroke-linecap:butt;stroke-linejoin:round;}
  </style>
 </defs>
 <g id="figure_1">
  <g id="patch_1">
   <path d="M 0 345.6 
L 460.8 345.6 
L 460.8 0 
L 0 0 
z
" style="fill:none;"/>
  </g>
  <g id="axes_1">
   <g id="patch_2">
    <path d="M 46.08 311.04 
L 322.56 311.04 
L 322.56 51.84 
L 46.08 51.84 
z
" style="fill:none;"/>
   </g>
   <g id="matplotlib.axis_1">
    <g id="xtick_1">
     <g id="line2d_1"/>
     <g id="text_1">
      <!-- 0 -->
      <defs>
       <path d="M 50.53125 36.375 
Q 50.53125 16.796875 44.84375 7.640625 
Q 39.15625 -1.515625 27.296875 -1.515625 
Q 15.28125 -1.515625 9.65625 7.8125 
Q 4.046875 17.140625 4.046875 36.28125 
Q 4.046875 55.953125 9.734375 65.0625 
Q 15.4375 74.171875 27.296875 74.171875 
Q 39.3125 74.171875 44.921875 64.75 
Q 50.53125 55.328125 50.53125 36.375 
z
M 38.03125 14.203125 
Q 39.453125 17.828125 40.03125 23.34375 
Q 40.625 28.859375 40.625 36.375 
Q 40.625 43.84375 40.03125 49.359375 
Q 39.453125 54.890625 37.984375 58.546875 
Q 36.53125 62.25 33.953125 64.171875 
Q 31.390625 66.109375 27.296875 66.109375 
Q 23.25 66.109375 20.625 64.171875 
Q 18.015625 62.25 16.5 58.453125 
Q 15.046875 54.734375 14.5 49.0625 
Q 13.96875 43.40625 13.96875 36.28125 
Q 13.96875 28.65625 14.421875 23.53125 
Q 14.890625 18.40625 16.453125 14.359375 
Q 17.875 10.59375 20.484375 8.5625 
Q 23.09375 6.546875 27.296875 6.546875 
Q 31.34375 6.546875 33.953125 8.46875 
Q 36.578125 10.40625 38.03125 14.203125 
z
" id="Tahoma-30"/>
      </defs>
      <g style="fill:#535956;" transform="translate(42.258438 325.177812)scale(0.14 -0.14)">
       <use xlink:href="#Tahoma-30"/>
      </g>
     </g>
    </g>
    <g id="xtick_2">
     <g id="line2d_2"/>
     <g id="text_2">
      <!-- 50 -->
      <defs>
       <path d="M 49.359375 23.140625 
Q 49.359375 17.875 47.671875 13.375 
Q 46 8.890625 42.96875 5.609375 
Q 39.890625 2.296875 35.328125 0.390625 
Q 30.765625 -1.515625 25.09375 -1.515625 
Q 19.875 -1.515625 14.8125 -0.359375 
Q 9.765625 0.78125 6.0625 2.640625 
L 6.0625 12.9375 
L 6.734375 12.9375 
Q 7.859375 12.109375 9.953125 11.0625 
Q 12.0625 10.015625 14.59375 9.078125 
Q 17.484375 8.0625 19.875 7.5 
Q 22.265625 6.9375 25.25 6.9375 
Q 28.171875 6.9375 30.953125 7.984375 
Q 33.734375 9.03125 35.75 11.375 
Q 37.546875 13.53125 38.5 16.40625 
Q 39.453125 19.28125 39.453125 23.1875 
Q 39.453125 27.046875 38.40625 29.53125 
Q 37.359375 32.03125 35.359375 33.640625 
Q 33.25 35.5 30.203125 36.25 
Q 27.15625 37.015625 23.390625 37.015625 
Q 19.4375 37.015625 15.421875 36.40625 
Q 11.421875 35.796875 9.03125 35.25 
L 9.03125 72.703125 
L 48.921875 72.703125 
L 48.921875 64.15625 
L 18.453125 64.15625 
L 18.453125 44.828125 
Q 20.21875 45.015625 21.921875 45.109375 
Q 23.640625 45.21875 25.046875 45.21875 
Q 30.609375 45.21875 34.46875 44.28125 
Q 38.328125 43.359375 41.890625 40.671875 
Q 45.515625 37.9375 47.4375 33.828125 
Q 49.359375 29.734375 49.359375 23.140625 
z
" id="Tahoma-35"/>
      </defs>
      <g style="fill:#535956;" transform="translate(124.836875 325.177812)scale(0.14 -0.14)">
       <use xlink:href="#Tahoma-35"/>
       <use x="54.589844" xlink:href="#Tahoma-30"/>
      </g>
     </g>
    </g>
    <g id="xtick_3">
     <g id="line2d_3"/>
     <g id="text_3">
      <!-- 100 -->
      <defs>
       <path d="M 46.484375 0 
L 11.03125 0 
L 11.03125 7.421875 
L 24.21875 7.421875 
L 24.21875 56.15625 
L 11.03125 56.15625 
L 11.03125 62.796875 
Q 18.5 62.796875 22.046875 64.921875 
Q 25.59375 67.046875 26.03125 72.953125 
L 33.59375 72.953125 
L 33.59375 7.421875 
L 46.484375 7.421875 
z
" id="Tahoma-31"/>
      </defs>
      <g style="fill:#535956;" transform="translate(207.415313 325.177812)scale(0.14 -0.14)">
       <use xlink:href="#Tahoma-31"/>
       <use x="54.589844" xlink:href="#Tahoma-30"/>
       <use x="109.179688" xlink:href="#Tahoma-30"/>
      </g>
     </g>
    </g>
    <g id="xtick_4">
     <g id="line2d_4"/>
     <g id="text_4">
      <!-- 150 -->
      <g style="fill:#535956;" transform="translate(293.815313 325.177812)scale(0.14 -0.14)">
       <use xlink:href="#Tahoma-31"/>
       <use x="54.589844" xlink:href="#Tahoma-35"/>
       <use x="109.179688" xlink:href="#Tahoma-30"/>
      </g>
     </g>
    </g>
    <g id="text_5">
     <!-- Time (step) -->
     <defs>
      <path d="M 24.359375 0 
L 24.359375 64.109375 
L -0.046875 64.109375 
L -0.046875 72.703125 
L 58.453125 72.703125 
L 58.453125 64.109375 
L 34.03125 64.109375 
L 34.03125 0 
z
" id="Tahoma-54"/>
      <path d="M 16.015625 0 
L 6.84375 0 
L 6.84375 54.546875 
L 16.015625 54.546875 
z
M 16.65625 63.671875 
L 6.203125 63.671875 
L 6.203125 73.1875 
L 16.65625 73.1875 
z
" id="Tahoma-69"/>
      <path d="M 68.5625 0 
L 68.5625 31.546875 
Q 68.5625 35.296875 68.265625 38.5 
Q 67.96875 41.703125 67.046875 43.5 
Q 66.0625 45.453125 64.25 46.375 
Q 62.453125 47.3125 59.375 47.3125 
Q 56.546875 47.3125 53.296875 45.578125 
Q 50.046875 43.84375 46.578125 40.578125 
Q 46.625 39.75 46.703125 38.59375 
Q 46.78125 37.453125 46.78125 35.890625 
L 46.78125 0 
L 37.59375 0 
L 37.59375 31.546875 
Q 37.59375 35.296875 37.296875 38.5 
Q 37.015625 41.703125 36.078125 43.5 
Q 35.109375 45.453125 33.296875 46.375 
Q 31.5 47.3125 28.421875 47.3125 
Q 25.4375 47.3125 22.15625 45.453125 
Q 18.890625 43.609375 15.828125 40.71875 
L 15.828125 0 
L 6.640625 0 
L 6.640625 54.546875 
L 15.828125 54.546875 
L 15.828125 48.484375 
Q 19.4375 52.09375 22.96875 54.078125 
Q 26.515625 56.0625 30.765625 56.0625 
Q 35.59375 56.0625 39.328125 53.859375 
Q 43.0625 51.65625 45.015625 46.625 
Q 49.171875 51.265625 53.125 53.65625 
Q 57.078125 56.0625 61.71875 56.0625 
Q 65.234375 56.0625 68.109375 54.953125 
Q 71 53.859375 73.140625 51.421875 
Q 75.34375 48.921875 76.53125 45.203125 
Q 77.734375 41.5 77.734375 35.890625 
L 77.734375 0 
z
" id="Tahoma-6d"/>
      <path d="M 30.328125 -1.265625 
Q 17.28125 -1.265625 10.078125 6.078125 
Q 2.875 13.421875 2.875 26.953125 
Q 2.875 40.28125 9.859375 48.171875 
Q 16.84375 56.0625 28.125 56.0625 
Q 33.203125 56.0625 37.109375 54.59375 
Q 41.015625 53.125 43.953125 50 
Q 46.875 46.875 48.4375 42.359375 
Q 50 37.84375 50 31.296875 
L 50 26.3125 
L 12.203125 26.3125 
Q 12.203125 16.796875 16.984375 11.765625 
Q 21.78125 6.734375 30.21875 6.734375 
Q 33.25 6.734375 36.15625 7.421875 
Q 39.0625 8.109375 41.40625 9.1875 
Q 43.890625 10.296875 45.59375 11.34375 
Q 47.3125 12.40625 48.4375 13.328125 
L 48.96875 13.328125 
L 48.96875 3.328125 
Q 47.359375 2.6875 44.96875 1.734375 
Q 42.578125 0.78125 40.671875 0.25 
Q 37.984375 -0.484375 35.8125 -0.875 
Q 33.640625 -1.265625 30.328125 -1.265625 
z
M 41.0625 33.34375 
Q 40.96875 37.0625 40.1875 39.75 
Q 39.40625 42.4375 37.9375 44.28125 
Q 36.328125 46.34375 33.8125 47.40625 
Q 31.296875 48.484375 27.59375 48.484375 
Q 23.921875 48.484375 21.359375 47.390625 
Q 18.796875 46.296875 16.703125 44.1875 
Q 14.65625 42.046875 13.578125 39.421875 
Q 12.5 36.8125 12.203125 33.34375 
z
" id="Tahoma-65"/>
      <path id="Tahoma-20"/>
      <path d="M 34.671875 -20.125 
L 23.484375 -20.125 
Q 14.984375 -10.015625 10.125 1.265625 
Q 5.28125 12.546875 5.28125 27.9375 
Q 5.28125 42.96875 10.078125 54.421875 
Q 14.890625 65.875 23.484375 75.984375 
L 34.671875 75.984375 
L 34.671875 75.484375 
Q 30.71875 71.921875 27.125 67.25 
Q 23.53125 62.59375 20.453125 56.390625 
Q 17.53125 50.390625 15.703125 43.15625 
Q 13.875 35.9375 13.875 27.9375 
Q 13.875 19.578125 15.65625 12.640625 
Q 17.4375 5.71875 20.453125 -0.53125 
Q 23.390625 -6.546875 27.140625 -11.40625 
Q 30.90625 -16.265625 34.671875 -19.625 
z
" id="Tahoma-28"/>
      <path d="M 21.390625 -1.3125 
Q 15.921875 -1.3125 11.15625 0.140625 
Q 6.390625 1.609375 3.265625 3.265625 
L 3.265625 13.578125 
L 3.765625 13.578125 
Q 4.9375 12.640625 6.515625 11.515625 
Q 8.109375 10.40625 10.75 9.1875 
Q 13.09375 8.109375 15.890625 7.28125 
Q 18.703125 6.453125 21.734375 6.453125 
Q 23.921875 6.453125 26.40625 6.953125 
Q 28.90625 7.46875 30.125 8.25 
Q 31.84375 9.375 32.59375 10.640625 
Q 33.34375 11.921875 33.34375 14.453125 
Q 33.34375 17.71875 31.5625 19.375 
Q 29.78125 21.046875 25.25 22.171875 
Q 23.484375 22.609375 20.65625 23.1875 
Q 17.828125 23.78125 15.4375 24.46875 
Q 9.1875 26.265625 6.34375 30.046875 
Q 3.515625 33.84375 3.515625 39.203125 
Q 3.515625 46.578125 9.078125 51.21875 
Q 14.65625 55.859375 23.875 55.859375 
Q 28.421875 55.859375 33 54.734375 
Q 37.59375 53.609375 40.71875 51.90625 
L 40.71875 42.09375 
L 40.234375 42.09375 
Q 36.71875 44.875 32.390625 46.484375 
Q 28.078125 48.09375 23.6875 48.09375 
Q 19.140625 48.09375 16.015625 46.1875 
Q 12.890625 44.28125 12.890625 40.4375 
Q 12.890625 37.015625 14.75 35.328125 
Q 16.609375 33.640625 20.703125 32.5625 
Q 22.75 32.03125 25.265625 31.515625 
Q 27.78125 31 30.5625 30.328125 
Q 36.625 28.8125 39.671875 25.296875 
Q 42.71875 21.78125 42.71875 15.71875 
Q 42.71875 12.203125 41.328125 9.046875 
Q 39.9375 5.90625 37.25 3.65625 
Q 34.328125 1.21875 30.640625 -0.046875 
Q 26.953125 -1.3125 21.390625 -1.3125 
z
" id="Tahoma-73"/>
      <path d="M 23.140625 -1.078125 
Q 15.625 -1.078125 11.421875 3.1875 
Q 7.234375 7.46875 7.234375 16.703125 
L 7.234375 46.921875 
L 1.03125 46.921875 
L 1.03125 54.546875 
L 7.234375 54.546875 
L 7.234375 70.21875 
L 16.40625 70.21875 
L 16.40625 54.546875 
L 33.296875 54.546875 
L 33.296875 46.921875 
L 16.40625 46.921875 
L 16.40625 21 
Q 16.40625 16.84375 16.546875 14.59375 
Q 16.703125 12.359375 17.671875 10.40625 
Q 18.5 8.6875 20.359375 7.828125 
Q 22.21875 6.984375 25.390625 6.984375 
Q 27.640625 6.984375 29.734375 7.640625 
Q 31.84375 8.296875 32.765625 8.734375 
L 33.296875 8.734375 
L 33.296875 0.484375 
Q 30.71875 -0.25 28.046875 -0.65625 
Q 25.390625 -1.078125 23.140625 -1.078125 
z
" id="Tahoma-74"/>
      <path d="M 52.390625 28.71875 
Q 52.390625 15.09375 45.875 7 
Q 39.359375 -1.078125 29.390625 -1.078125 
Q 25.34375 -1.078125 22.21875 -0.140625 
Q 19.09375 0.78125 15.828125 2.734375 
L 15.828125 -20.125 
L 6.640625 -20.125 
L 6.640625 54.546875 
L 15.828125 54.546875 
L 15.828125 48.828125 
Q 19.234375 51.90625 23.40625 53.984375 
Q 27.59375 56.0625 32.515625 56.0625 
Q 41.890625 56.0625 47.140625 48.640625 
Q 52.390625 41.21875 52.390625 28.71875 
z
M 42.921875 27.6875 
Q 42.921875 37.015625 39.9375 42.15625 
Q 36.96875 47.3125 30.28125 47.3125 
Q 26.375 47.3125 22.734375 45.578125 
Q 19.09375 43.84375 15.828125 41.109375 
L 15.828125 10.203125 
Q 19.4375 8.453125 22 7.8125 
Q 24.5625 7.171875 27.875 7.171875 
Q 35.015625 7.171875 38.96875 12.390625 
Q 42.921875 17.625 42.921875 27.6875 
z
" id="Tahoma-70"/>
      <path d="M 33.015625 27.9375 
Q 33.015625 12.84375 28.171875 1.40625 
Q 23.34375 -10.015625 14.796875 -20.125 
L 3.609375 -20.125 
L 3.609375 -19.625 
Q 7.375 -16.265625 11.171875 -11.359375 
Q 14.984375 -6.453125 17.828125 -0.53125 
Q 20.84375 5.765625 22.625 12.765625 
Q 24.421875 19.78125 24.421875 27.9375 
Q 24.421875 35.984375 22.609375 43.15625 
Q 20.796875 50.34375 17.828125 56.390625 
Q 14.84375 62.453125 11.078125 67.28125 
Q 7.328125 72.125 3.609375 75.484375 
L 3.609375 75.984375 
L 14.796875 75.984375 
Q 23.296875 65.875 28.15625 54.484375 
Q 33.015625 43.109375 33.015625 27.9375 
z
" id="Tahoma-29"/>
     </defs>
     <g style="fill:#535956;" transform="translate(148.500781 342.633125)scale(0.14 -0.14)">
      <use xlink:href="#Tahoma-54"/>
      <use x="58.398438" xlink:href="#Tahoma-69"/>
      <use x="81.25" xlink:href="#Tahoma-6d"/>
      <use x="165.234375" xlink:href="#Tahoma-65"/>
      <use x="217.871094" xlink:href="#Tahoma-20"/>
      <use x="249.121094" xlink:href="#Tahoma-28"/>
      <use x="287.402344" xlink:href="#Tahoma-73"/>
      <use x="332.03125" xlink:href="#Tahoma-74"/>
      <use x="365.478516" xlink:href="#Tahoma-65"/>
      <use x="418.115234" xlink:href="#Tahoma-70"/>
      <use x="473.388672" xlink:href="#Tahoma-29"/>
     </g>
    </g>
   </g>
   <g id="matplotlib.axis_2">
    <g id="ytick_1">
     <g id="line2d_5"/>
     <g id="text_6">
      <!-- 0 -->
      <g style="fill:#535956;" transform="translate(34.936875 316.358906)scale(0.14 -0.14)">
       <use xlink:href="#Tahoma-30"/>
      </g>
     </g>
    </g>
    <g id="ytick_2">
     <g id="line2d_6"/>
     <g id="text_7">
      <!-- 1 -->
      <g style="fill:#535956;" transform="translate(34.936875 264.518906)scale(0.14 -0.14)">
       <use xlink:href="#Tahoma-31"/>
      </g>
     </g>
    </g>
    <g id="ytick_3">
     <g id="line2d_7"/>
     <g id="text_8">
      <!-- 2 -->
      <defs>
       <path d="M 50.203125 0 
L 5.328125 0 
L 5.328125 10.203125 
Q 10.15625 14.796875 14.453125 18.984375 
Q 18.75 23.1875 22.859375 27.734375 
Q 31.15625 36.859375 34.171875 42.359375 
Q 37.203125 47.859375 37.203125 53.71875 
Q 37.203125 56.734375 36.25 59.03125 
Q 35.296875 61.328125 33.640625 62.84375 
Q 31.9375 64.3125 29.6875 65.03125 
Q 27.4375 65.765625 24.75 65.765625 
Q 22.171875 65.765625 19.5 65.109375 
Q 16.84375 64.453125 14.40625 63.484375 
Q 12.359375 62.640625 10.453125 61.46875 
Q 8.546875 60.296875 7.375 59.46875 
L 6.84375 59.46875 
L 6.84375 69.828125 
Q 9.859375 71.34375 15.25 72.78125 
Q 20.65625 74.21875 25.484375 74.21875 
Q 35.640625 74.21875 41.40625 68.8125 
Q 47.171875 63.421875 47.171875 54.203125 
Q 47.171875 49.953125 46.171875 46.328125 
Q 45.171875 42.71875 43.40625 39.65625 
Q 41.609375 36.46875 39.0625 33.34375 
Q 36.53125 30.21875 33.6875 27.203125 
Q 29.109375 22.21875 23.46875 16.84375 
Q 17.828125 11.46875 14.453125 8.34375 
L 50.203125 8.34375 
z
" id="Tahoma-32"/>
      </defs>
      <g style="fill:#535956;" transform="translate(34.936875 212.678906)scale(0.14 -0.14)">
       <use xlink:href="#Tahoma-32"/>
      </g>
     </g>
    </g>
    <g id="ytick_4">
     <g id="line2d_8"/>
     <g id="text_9">
      <!-- 3 -->
      <defs>
       <path d="M 24.953125 65.765625 
Q 22.3125 65.765625 19.671875 65.125 
Q 17.046875 64.5 14.5 63.484375 
Q 12.15625 62.5 10.421875 61.421875 
Q 8.6875 60.359375 7.328125 59.421875 
L 6.734375 59.421875 
L 6.734375 69.734375 
Q 9.90625 71.4375 15.34375 72.828125 
Q 20.796875 74.21875 25.734375 74.21875 
Q 30.671875 74.21875 34.34375 73.21875 
Q 38.03125 72.21875 41.015625 70.125 
Q 44.234375 67.78125 45.875 64.453125 
Q 47.515625 61.140625 47.515625 56.6875 
Q 47.515625 50.6875 43.546875 46.140625 
Q 39.59375 41.609375 34.078125 40.375 
L 34.078125 39.703125 
Q 36.375 39.265625 38.984375 38.1875 
Q 41.609375 37.109375 43.84375 35.015625 
Q 46.09375 32.90625 47.5 29.609375 
Q 48.921875 26.3125 48.921875 21.578125 
Q 48.921875 16.65625 47.234375 12.53125 
Q 45.5625 8.40625 42.484375 5.21875 
Q 39.3125 1.90625 34.8125 0.1875 
Q 30.328125 -1.515625 24.609375 -1.515625 
Q 19.140625 -1.515625 13.765625 -0.1875 
Q 8.40625 1.125 4.734375 2.984375 
L 4.734375 13.28125 
L 5.421875 13.28125 
Q 8.5 11.03125 13.671875 8.984375 
Q 18.84375 6.9375 24.03125 6.9375 
Q 27 6.9375 30 7.890625 
Q 33.015625 8.84375 35.015625 10.984375 
Q 36.96875 13.140625 37.984375 15.71875 
Q 39.015625 18.3125 39.015625 22.265625 
Q 39.015625 26.21875 37.859375 28.75 
Q 36.71875 31.296875 34.671875 32.765625 
Q 32.625 34.234375 29.8125 34.796875 
Q 27 35.359375 23.734375 35.359375 
L 19.578125 35.359375 
L 19.578125 43.453125 
L 22.796875 43.453125 
Q 29.390625 43.453125 33.515625 46.578125 
Q 37.640625 49.703125 37.640625 55.671875 
Q 37.640625 58.40625 36.5625 60.375 
Q 35.5 62.359375 33.84375 63.53125 
Q 31.984375 64.796875 29.734375 65.28125 
Q 27.484375 65.765625 24.953125 65.765625 
z
" id="Tahoma-33"/>
      </defs>
      <g style="fill:#535956;" transform="translate(34.936875 160.838906)scale(0.14 -0.14)">
       <use xlink:href="#Tahoma-33"/>
      </g>
     </g>
    </g>
    <g id="ytick_5">
     <g id="line2d_9"/>
     <g id="text_10">
      <!-- 4 -->
      <defs>
       <path d="M 52.09375 25 
L 43.453125 25 
L 43.453125 0 
L 34.078125 0 
L 34.078125 25 
L 1.953125 25 
L 1.953125 35.25 
L 34.46875 72.703125 
L 43.453125 72.703125 
L 43.453125 32.8125 
L 52.09375 32.8125 
z
M 34.078125 32.8125 
L 34.078125 61.234375 
L 9.578125 32.8125 
z
" id="Tahoma-34"/>
      </defs>
      <g style="fill:#535956;" transform="translate(34.936875 108.998906)scale(0.14 -0.14)">
       <use xlink:href="#Tahoma-34"/>
      </g>
     </g>
    </g>
    <g id="ytick_6">
     <g id="line2d_10"/>
     <g id="text_11">
      <!-- 5 -->
      <g style="fill:#535956;" transform="translate(34.936875 57.158906)scale(0.14 -0.14)">
       <use xlink:href="#Tahoma-35"/>
      </g>
     </g>
    </g>
    <g id="text_12">
     <!-- Average distance to queen -->
     <defs>
      <path d="M -0.484375 0 
L 24.03125 72.703125 
L 35.9375 72.703125 
L 60.453125 0 
L 50.25 0 
L 43.65625 20.3125 
L 15.875 20.3125 
L 9.28125 0 
z
M 40.96875 28.5625 
L 29.734375 62.84375 
L 18.5625 28.5625 
z
" id="Tahoma-41"/>
      <path d="M 49.515625 54.546875 
L 28.953125 0 
L 20.703125 0 
L 0.296875 54.546875 
L 10.203125 54.546875 
L 25.140625 12.453125 
L 39.9375 54.546875 
z
" id="Tahoma-76"/>
      <path d="M 35.546875 44.671875 
L 35.0625 44.671875 
Q 34.03125 44.96875 32.875 45.046875 
Q 31.734375 45.125 30.125 45.125 
Q 26.421875 45.125 22.75 43.5 
Q 19.09375 41.890625 15.828125 38.71875 
L 15.828125 0 
L 6.640625 0 
L 6.640625 54.546875 
L 15.828125 54.546875 
L 15.828125 46.4375 
Q 20.84375 50.875 24.578125 52.703125 
Q 28.328125 54.546875 31.84375 54.546875 
Q 33.25 54.546875 33.953125 54.46875 
Q 34.671875 54.390625 35.546875 54.25 
z
" id="Tahoma-72"/>
      <path d="M 37.109375 13.421875 
L 37.109375 28.5625 
Q 33.84375 28.265625 28.828125 27.75 
Q 23.828125 27.25 20.75 26.3125 
Q 17.09375 25.203125 14.703125 22.875 
Q 12.3125 20.5625 12.3125 16.40625 
Q 12.3125 11.71875 14.9375 9.328125 
Q 17.578125 6.9375 22.65625 6.9375 
Q 27 6.9375 30.515625 8.8125 
Q 34.03125 10.6875 37.109375 13.421875 
z
M 37.109375 5.8125 
Q 35.984375 4.984375 34.109375 3.484375 
Q 32.234375 2 30.46875 1.125 
Q 28.03125 -0.140625 25.75 -0.828125 
Q 23.484375 -1.515625 19.390625 -1.515625 
Q 16.015625 -1.515625 12.984375 -0.234375 
Q 9.96875 1.03125 7.671875 3.328125 
Q 5.46875 5.5625 4.140625 8.859375 
Q 2.828125 12.15625 2.828125 15.828125 
Q 2.828125 21.484375 5.21875 25.453125 
Q 7.625 29.4375 12.796875 31.78125 
Q 17.390625 33.890625 23.640625 34.6875 
Q 29.890625 35.5 37.109375 35.890625 
L 37.109375 37.640625 
Q 37.109375 40.875 36.125 42.84375 
Q 35.15625 44.828125 33.40625 45.90625 
Q 31.640625 47.015625 29.09375 47.375 
Q 26.5625 47.75 23.875 47.75 
Q 20.703125 47.75 16.40625 46.796875 
Q 12.109375 45.84375 7.8125 44.046875 
L 7.28125 44.046875 
L 7.28125 53.375 
Q 9.8125 54.109375 14.546875 54.984375 
Q 19.28125 55.859375 23.921875 55.859375 
Q 29.546875 55.859375 33.390625 54.984375 
Q 37.25 54.109375 40.328125 51.8125 
Q 43.3125 49.5625 44.765625 46 
Q 46.234375 42.4375 46.234375 37.3125 
L 46.234375 0 
L 37.109375 0 
z
" id="Tahoma-61"/>
      <path d="M 39.453125 14.796875 
L 39.453125 44.734375 
Q 36.03125 46.390625 33.125 47.09375 
Q 30.21875 47.796875 27.34375 47.796875 
Q 20.359375 47.796875 16.359375 42.671875 
Q 12.359375 37.546875 12.359375 27.984375 
Q 12.359375 18.890625 15.40625 14.15625 
Q 18.453125 9.421875 25.296875 9.421875 
Q 28.859375 9.421875 32.640625 10.828125 
Q 36.421875 12.25 39.453125 14.796875 
z
M 8.59375 -8.734375 
Q 9.515625 -9.125 11.328125 -9.78125 
Q 13.140625 -10.453125 15.4375 -11.03125 
Q 17.96875 -11.671875 20.109375 -12.0625 
Q 22.265625 -12.453125 24.8125 -12.453125 
Q 29.046875 -12.453125 32 -11.328125 
Q 34.96875 -10.203125 36.625 -8.203125 
Q 38.1875 -6.203125 38.8125 -3.5625 
Q 39.453125 -0.921875 39.453125 2.4375 
L 39.453125 7.234375 
Q 35.75 4 32.171875 2.453125 
Q 28.609375 0.921875 23.25 0.921875 
Q 13.921875 0.921875 8.390625 7.859375 
Q 2.875 14.796875 2.875 27.78125 
Q 2.875 34.578125 4.78125 39.8125 
Q 6.6875 45.0625 9.90625 48.734375 
Q 12.984375 52.25 17.1875 54.15625 
Q 21.390625 56.0625 25.875 56.0625 
Q 30.125 56.0625 33.21875 55.046875 
Q 36.328125 54.046875 39.453125 52.203125 
L 39.984375 54.546875 
L 48.640625 54.546875 
L 48.640625 6.203125 
Q 48.640625 -7.671875 42.578125 -14.15625 
Q 36.53125 -20.65625 24.078125 -20.65625 
Q 20.0625 -20.65625 15.890625 -20.015625 
Q 11.71875 -19.390625 8.109375 -18.3125 
L 8.109375 -8.734375 
z
" id="Tahoma-67"/>
      <path d="M 48.640625 0 
L 39.453125 0 
L 39.453125 5.5625 
Q 37.3125 3.765625 35.75 2.59375 
Q 34.1875 1.421875 32.078125 0.4375 
Q 30.125 -0.484375 28.015625 -1 
Q 25.921875 -1.515625 23.140625 -1.515625 
Q 18.703125 -1.515625 14.921875 0.34375 
Q 11.140625 2.203125 8.5 5.765625 
Q 5.8125 9.375 4.34375 14.671875 
Q 2.875 19.96875 2.875 26.859375 
Q 2.875 34.03125 4.734375 39.28125 
Q 6.59375 44.53125 9.859375 48.4375 
Q 12.84375 52 17.0625 54.03125 
Q 21.296875 56.0625 25.921875 56.0625 
Q 30.03125 56.0625 33.046875 55.15625 
Q 36.078125 54.25 39.453125 52.34375 
L 39.453125 75.984375 
L 48.640625 75.984375 
z
M 39.453125 13.28125 
L 39.453125 44.734375 
Q 36.03125 46.390625 33.3125 47.015625 
Q 30.609375 47.65625 27.4375 47.65625 
Q 20.359375 47.65625 16.359375 42.359375 
Q 12.359375 37.0625 12.359375 27.046875 
Q 12.359375 17.4375 15.421875 12.328125 
Q 18.5 7.234375 25.296875 7.234375 
Q 28.90625 7.234375 32.5625 8.859375 
Q 36.234375 10.5 39.453125 13.28125 
z
" id="Tahoma-64"/>
      <path d="M 49.515625 0 
L 40.328125 0 
L 40.328125 31.0625 
Q 40.328125 34.8125 39.953125 38.0625 
Q 39.59375 41.3125 38.578125 43.265625 
Q 37.453125 45.3125 35.453125 46.3125 
Q 33.453125 47.3125 29.984375 47.3125 
Q 26.5625 47.3125 22.921875 45.484375 
Q 19.28125 43.65625 15.828125 40.71875 
L 15.828125 0 
L 6.640625 0 
L 6.640625 54.546875 
L 15.828125 54.546875 
L 15.828125 48.484375 
Q 19.921875 52.15625 23.921875 54.109375 
Q 27.9375 56.0625 32.375 56.0625 
Q 40.4375 56.0625 44.96875 50.75 
Q 49.515625 45.453125 49.515625 35.40625 
z
" id="Tahoma-6e"/>
      <path d="M 28.328125 -1.21875 
Q 22.703125 -1.21875 18.015625 0.515625 
Q 13.328125 2.25 9.96875 5.765625 
Q 6.59375 9.28125 4.734375 14.625 
Q 2.875 19.96875 2.875 27.203125 
Q 2.875 34.375 4.796875 39.59375 
Q 6.734375 44.828125 9.96875 48.390625 
Q 13.1875 51.953125 17.984375 53.875 
Q 22.796875 55.8125 28.328125 55.8125 
Q 32.8125 55.8125 36.984375 54.53125 
Q 41.15625 53.265625 44.4375 51.609375 
L 44.4375 41.3125 
L 43.890625 41.3125 
Q 42.921875 42.140625 41.375 43.203125 
Q 39.84375 44.28125 37.640625 45.40625 
Q 35.75 46.390625 33.15625 47.125 
Q 30.5625 47.859375 28.171875 47.859375 
Q 21.046875 47.859375 16.71875 42.453125 
Q 12.40625 37.0625 12.40625 27.203125 
Q 12.40625 17.53125 16.578125 12.125 
Q 20.75 6.734375 28.171875 6.734375 
Q 32.671875 6.734375 36.71875 8.59375 
Q 40.765625 10.453125 43.890625 13.375 
L 44.4375 13.375 
L 44.4375 3.078125 
Q 43.0625 2.4375 41.015625 1.53125 
Q 38.96875 0.640625 37.3125 0.203125 
Q 34.96875 -0.484375 33.109375 -0.84375 
Q 31.25 -1.21875 28.328125 -1.21875 
z
" id="Tahoma-63"/>
      <path d="M 51.515625 27.25 
Q 51.515625 13.484375 44.875 5.984375 
Q 38.234375 -1.515625 27.203125 -1.515625 
Q 15.828125 -1.515625 9.296875 6.21875 
Q 2.78125 13.96875 2.78125 27.25 
Q 2.78125 40.921875 9.5 48.484375 
Q 16.21875 56.0625 27.203125 56.0625 
Q 38.234375 56.0625 44.875 48.515625 
Q 51.515625 40.96875 51.515625 27.25 
z
M 42.046875 27.25 
Q 42.046875 37.84375 38.1875 42.984375 
Q 34.328125 48.140625 27.203125 48.140625 
Q 20.015625 48.140625 16.125 42.984375 
Q 12.25 37.84375 12.25 27.25 
Q 12.25 17 16.125 11.6875 
Q 20.015625 6.390625 27.203125 6.390625 
Q 34.28125 6.390625 38.15625 11.59375 
Q 42.046875 16.796875 42.046875 27.25 
z
" id="Tahoma-6f"/>
      <path d="M 48.640625 -20.125 
L 39.453125 -20.125 
L 39.453125 5.953125 
Q 35.453125 2.296875 31.640625 0.609375 
Q 27.828125 -1.078125 23.1875 -1.078125 
Q 13.921875 -1.078125 8.390625 6.359375 
Q 2.875 13.8125 2.875 27.09375 
Q 2.875 34.125 4.796875 39.515625 
Q 6.734375 44.921875 9.90625 48.578125 
Q 12.9375 52.15625 17.140625 54.109375 
Q 21.34375 56.0625 25.875 56.0625 
Q 30.078125 56.0625 33.15625 55.078125 
Q 36.234375 54.109375 39.453125 52.203125 
L 40.046875 54.546875 
L 48.640625 54.546875 
z
M 39.453125 13.671875 
L 39.453125 44.734375 
Q 35.984375 46.4375 33.25 47.109375 
Q 30.515625 47.796875 27.390625 47.796875 
Q 20.171875 47.796875 16.265625 42.578125 
Q 12.359375 37.359375 12.359375 27.546875 
Q 12.359375 17.96875 15.484375 12.8125 
Q 18.609375 7.671875 25.203125 7.671875 
Q 29.046875 7.671875 32.703125 9.328125 
Q 36.375 10.984375 39.453125 13.671875 
z
" id="Tahoma-71"/>
      <path d="M 49.125 0 
L 39.9375 0 
L 39.9375 6.0625 
Q 35.6875 2.34375 31.875 0.40625 
Q 28.078125 -1.515625 23.390625 -1.515625 
Q 19.828125 -1.515625 16.671875 -0.34375 
Q 13.53125 0.828125 11.1875 3.375 
Q 8.84375 5.90625 7.546875 9.765625 
Q 6.25 13.625 6.25 19.140625 
L 6.25 54.546875 
L 15.4375 54.546875 
L 15.4375 23.484375 
Q 15.4375 19.140625 15.75 16.28125 
Q 16.0625 13.421875 17.1875 11.28125 
Q 18.3125 9.1875 20.234375 8.203125 
Q 22.171875 7.234375 25.78125 7.234375 
Q 29.15625 7.234375 32.953125 9.125 
Q 36.765625 11.03125 39.9375 13.8125 
L 39.9375 54.546875 
L 49.125 54.546875 
z
" id="Tahoma-75"/>
     </defs>
     <g style="fill:#535956;" transform="translate(28.045 263.737031)rotate(-90)scale(0.14 -0.14)">
      <use xlink:href="#Tahoma-41"/>
      <use x="59.945312" xlink:href="#Tahoma-76"/>
      <use x="109.75" xlink:href="#Tahoma-65"/>
      <use x="162.386719" xlink:href="#Tahoma-72"/>
      <use x="198.40625" xlink:href="#Tahoma-61"/>
      <use x="250.896484" xlink:href="#Tahoma-67"/>
      <use x="306.169922" xlink:href="#Tahoma-65"/>
      <use x="358.806641" xlink:href="#Tahoma-20"/>
      <use x="390.056641" xlink:href="#Tahoma-64"/>
      <use x="445.330078" xlink:href="#Tahoma-69"/>
      <use x="468.181641" xlink:href="#Tahoma-73"/>
      <use x="512.810547" xlink:href="#Tahoma-74"/>
      <use x="546.257812" xlink:href="#Tahoma-61"/>
      <use x="598.748047" xlink:href="#Tahoma-6e"/>
      <use x="654.509766" xlink:href="#Tahoma-63"/>
      <use x="700.652344" xlink:href="#Tahoma-65"/>
      <use x="753.289062" xlink:href="#Tahoma-20"/>
      <use x="784.539062" xlink:href="#Tahoma-74"/>
      <use x="817.986328" xlink:href="#Tahoma-6f"/>
      <use x="872.283203" xlink:href="#Tahoma-20"/>
      <use x="903.533203" xlink:href="#Tahoma-71"/>
      <use x="958.806641" xlink:href="#Tahoma-75"/>
      <use x="1014.568359" xlink:href="#Tahoma-65"/>
      <use x="1067.205078" xlink:href="#Tahoma-65"/>
      <use x="1119.841797" xlink:href="#Tahoma-6e"/>
     </g>
    </g>
   </g>
   <g id="line2d_11">
    <path clip-path="url(#p9b0bcd5f7e)" d="M 46.08 192.828835 
L 47.808 193.707069 
L 49.536 193.985097 
L 51.264 194.82536 
L 52.992 194.653669 
L 54.72 193.817822 
L 58.176 194.555557 
L 72 194.555557 
L 73.728 194.850628 
L 75.456 196.116758 
L 82.368 199.68443 
L 84.096 200.973213 
L 85.824 202.439198 
L 87.552 203.324919 
L 92.736 206.797201 
L 94.464 208.214846 
L 96.192 209.362168 
L 97.92 210.21259 
L 101.376 212.969563 
L 103.104 213.798549 
L 106.56 216.442492 
L 108.288 217.280445 
L 110.016 217.858527 
L 113.472 220.466804 
L 116.928 222.545363 
L 118.656 223.811601 
L 120.384 224.647889 
L 125.568 228.146791 
L 127.296 229.855518 
L 130.752 232.209858 
L 132.48 233.072554 
L 134.208 234.228342 
L 135.936 234.914953 
L 139.392 237.831107 
L 141.12 238.884304 
L 144.576 241.84372 
L 146.304 243.60809 
L 148.032 244.863115 
L 149.76 245.962596 
L 151.488 247.50636 
L 153.216 249.225189 
L 154.944 250.624455 
L 156.672 251.711036 
L 161.856 255.94749 
L 163.584 256.502546 
L 165.312 258.157293 
L 167.04 258.991999 
L 170.496 261.172235 
L 172.224 262.763776 
L 173.952 263.289208 
L 175.68 264.591129 
L 179.136 266.664729 
L 180.864 267.183129 
L 182.592 268.219928 
L 184.32 268.738328 
L 187.776 271.848728 
L 189.504 272.626328 
L 191.232 273.144728 
L 192.96 274.440728 
L 194.688 275.477527 
L 196.416 276.773527 
L 201.6 279.365527 
L 203.328 280.402327 
L 205.056 281.717136 
L 211.968 285.966013 
L 213.696 287.062088 
L 215.424 287.881554 
L 217.152 288.942653 
L 218.88 290.238629 
L 220.608 291.213433 
L 222.336 292.509402 
L 224.064 293.408247 
L 227.52 296.138063 
L 229.248 297.693182 
L 230.976 298.211551 
L 234.432 300.284956 
L 236.16 301.062451 
L 239.616 303.1359 
L 243.072 305.849749 
L 244.8 306.88653 
L 246.528 307.664072 
L 248.256 308.722249 
L 249.984 309.262881 
L 255.168 309.452181 
L 260.352 309.507244 
L 262.08 309.620902 
L 286.272 309.61537 
L 294.912 309.754731 
L 300.096 309.754731 
L 320.832 309.754731 
L 320.832 309.754731 
" style="fill:none;stroke:#1f77b4;stroke-linecap:round;stroke-width:3;"/>
   </g>
   <g id="line2d_12">
    <path clip-path="url(#p9b0bcd5f7e)" d="M 46.08 183.3398 
L 47.808 182.18775 
L 49.536 182.795339 
L 51.264 182.36149 
L 52.992 181.543211 
L 54.72 181.244252 
L 56.448 180.016986 
L 58.176 179.700937 
L 63.36 179.722769 
L 77.184 179.722769 
L 82.368 183.672371 
L 87.552 186.748618 
L 89.28 188.017404 
L 91.008 189.513675 
L 92.736 190.499221 
L 94.464 191.237618 
L 96.192 192.748726 
L 97.92 193.576721 
L 99.648 194.941069 
L 101.376 195.995495 
L 103.104 197.329536 
L 113.472 203.910992 
L 115.2 205.451355 
L 116.928 205.975883 
L 118.656 207.542123 
L 120.384 208.831851 
L 125.568 211.948456 
L 127.296 213.237852 
L 129.024 214.800885 
L 132.48 217.596105 
L 134.208 219.095887 
L 135.936 220.265519 
L 139.392 223.240304 
L 141.12 224.458918 
L 142.848 226.188954 
L 144.576 227.338192 
L 146.304 227.911518 
L 151.488 230.454915 
L 154.944 232.723468 
L 163.584 239.967871 
L 165.312 240.774904 
L 167.04 241.890706 
L 168.768 243.510094 
L 172.224 245.505087 
L 177.408 250.830034 
L 180.864 253.154167 
L 182.592 254.569142 
L 184.32 255.663735 
L 186.048 256.497949 
L 187.776 258.215524 
L 189.504 259.402579 
L 191.232 261.094607 
L 192.96 262.076232 
L 194.688 263.229646 
L 196.416 264.04239 
L 203.328 268.505306 
L 205.056 269.085594 
L 208.512 271.638174 
L 210.24 272.780289 
L 211.968 273.328742 
L 213.696 274.158155 
L 215.424 275.509122 
L 217.152 276.557581 
L 218.88 277.866316 
L 220.608 278.903095 
L 222.336 280.458265 
L 227.52 283.568595 
L 229.248 284.346172 
L 230.976 285.642138 
L 234.432 287.197284 
L 236.16 288.493234 
L 237.888 289.270806 
L 239.616 290.307561 
L 243.072 291.862685 
L 244.8 293.158605 
L 246.528 294.195348 
L 249.984 296.787151 
L 251.712 297.823859 
L 255.168 299.378869 
L 256.896 300.415524 
L 258.624 301.192989 
L 260.352 302.488702 
L 267.264 306.584275 
L 268.992 307.361272 
L 270.72 308.42314 
L 272.448 308.813305 
L 274.176 309.377701 
L 275.904 309.313779 
L 279.36 309.377701 
L 282.816 309.399923 
L 286.272 309.603187 
L 315.648 309.710257 
L 320.832 309.720484 
L 320.832 309.720484 
" style="fill:none;stroke:#ff7f0e;stroke-linecap:round;stroke-width:3;"/>
   </g>
   <g id="line2d_13">
    <path clip-path="url(#p9b0bcd5f7e)" d="M 46.08 191.721012 
L 47.808 190.896758 
L 49.536 191.029056 
L 51.264 190.626279 
L 52.992 191.273578 
L 54.72 192.158143 
L 56.448 191.066205 
L 58.176 191.539878 
L 59.904 191.764758 
L 75.456 191.764758 
L 77.184 193.917775 
L 82.368 199.277322 
L 87.552 203.476217 
L 89.28 204.524236 
L 91.008 205.917675 
L 92.736 207.65833 
L 96.192 210.436998 
L 99.648 213.890251 
L 101.376 215.271952 
L 103.104 216.298111 
L 104.832 217.647863 
L 106.56 218.444453 
L 110.016 220.920931 
L 113.472 222.634244 
L 115.2 224.085348 
L 116.928 225.872478 
L 118.656 226.802523 
L 120.384 227.395752 
L 122.112 228.321322 
L 123.84 230.094043 
L 125.568 231.069803 
L 127.296 232.365802 
L 129.024 233.143402 
L 130.752 234.439401 
L 132.48 235.217 
L 134.208 236.253799 
L 135.936 237.808998 
L 137.664 238.845797 
L 141.12 241.437794 
L 144.576 242.992993 
L 146.304 243.511393 
L 148.032 244.288992 
L 149.76 245.325791 
L 151.488 246.559455 
L 154.944 250.295644 
L 158.4 252.992263 
L 161.856 255.997746 
L 163.584 257.343508 
L 165.312 257.964652 
L 167.04 259.167224 
L 168.768 260.204021 
L 170.496 261.500018 
L 172.224 262.308675 
L 173.952 263.573612 
L 175.68 264.268834 
L 177.408 265.406365 
L 179.136 267.003166 
L 180.864 267.720799 
L 182.592 268.753033 
L 184.32 270.020348 
L 186.048 271.575539 
L 187.776 272.122621 
L 189.504 273.649127 
L 194.688 276.015171 
L 199.872 280.034521 
L 201.6 280.89188 
L 203.328 282.343396 
L 206.784 284.843856 
L 210.24 287.042831 
L 213.696 288.765162 
L 215.424 289.332697 
L 217.152 290.492846 
L 218.88 292.126861 
L 220.608 292.703081 
L 224.064 294.776632 
L 227.52 297.331662 
L 229.248 297.850016 
L 230.976 298.886711 
L 232.704 299.664235 
L 234.432 301.219212 
L 237.888 303.81054 
L 243.072 306.957749 
L 244.8 308.253027 
L 248.256 309.353759 
L 251.712 309.508379 
L 307.008 309.840074 
L 313.92 309.873113 
L 320.832 309.850034 
L 320.832 309.850034 
" style="fill:none;stroke:#2ca02c;stroke-linecap:round;stroke-width:3;"/>
   </g>
   <g id="line2d_14">
    <path clip-path="url(#p9b0bcd5f7e)" d="M 46.08 189.575816 
L 47.808 191.037614 
L 52.992 191.134329 
L 54.72 189.999669 
L 56.448 189.876263 
L 58.176 191.066413 
L 75.456 191.066413 
L 77.184 192.037578 
L 78.912 193.603499 
L 80.64 194.873564 
L 84.096 197.004229 
L 87.552 198.406451 
L 89.28 199.606052 
L 91.008 200.455549 
L 92.736 201.832982 
L 94.464 203.894734 
L 96.192 204.914477 
L 97.92 206.490767 
L 99.648 207.885082 
L 101.376 209.97283 
L 104.832 212.739126 
L 106.56 214.460667 
L 108.288 215.904938 
L 113.472 219.386793 
L 115.2 221.203467 
L 116.928 222.673763 
L 118.656 223.882358 
L 122.112 225.954038 
L 123.84 227.155484 
L 125.568 227.757094 
L 127.296 229.559392 
L 129.024 230.677671 
L 130.752 231.592326 
L 134.208 233.669475 
L 135.936 234.547135 
L 139.392 236.832737 
L 141.12 238.615099 
L 142.848 239.541018 
L 144.576 240.650986 
L 146.304 242.091248 
L 148.032 242.9399 
L 149.76 244.177261 
L 151.488 245.766997 
L 153.216 247.515254 
L 158.4 251.825212 
L 161.856 254.327366 
L 163.584 255.152938 
L 167.04 257.961406 
L 168.768 258.84193 
L 170.496 259.360329 
L 172.224 260.548934 
L 173.952 261.585733 
L 175.68 262.363333 
L 179.136 264.899911 
L 180.864 266.513207 
L 184.32 268.702391 
L 187.776 269.741685 
L 189.504 271.037678 
L 191.232 271.815274 
L 192.96 272.852067 
L 194.688 274.148058 
L 196.416 275.184853 
L 198.144 276.480845 
L 203.328 279.591222 
L 205.056 280.368816 
L 206.784 281.448859 
L 208.512 282.764229 
L 210.24 284.242124 
L 211.968 285.197996 
L 213.696 287.012411 
L 215.424 287.614641 
L 218.88 289.930247 
L 220.608 290.525633 
L 224.064 292.228107 
L 225.792 292.816319 
L 230.976 296.957288 
L 234.432 299.549153 
L 236.16 300.165886 
L 237.888 301.644842 
L 239.616 302.871395 
L 241.344 303.912589 
L 243.072 304.788618 
L 244.8 306.244981 
L 248.256 308.576527 
L 249.984 309.302538 
L 258.624 309.347174 
L 262.08 309.612979 
L 279.36 309.625057 
L 284.544 309.70367 
L 288 309.794524 
L 291.456 309.862624 
L 296.64 309.886824 
L 298.368 310.008378 
L 301.824 309.920991 
L 308.736 309.886824 
L 310.464 310.008378 
L 312.192 309.886824 
L 313.92 310.088407 
L 320.832 310.121523 
L 320.832 310.121523 
" style="fill:none;stroke:#d62728;stroke-linecap:round;stroke-width:3;"/>
   </g>
   <g id="line2d_15">
    <path clip-path="url(#p9b0bcd5f7e)" d="M 46.08 189.147971 
L 49.536 188.906744 
L 51.264 187.797984 
L 52.992 186.923698 
L 54.72 187.392337 
L 56.448 186.900467 
L 58.176 187.953277 
L 66.816 187.925711 
L 75.456 187.925711 
L 77.184 188.396348 
L 78.912 188.726636 
L 82.368 191.992522 
L 84.096 192.970071 
L 85.824 194.261894 
L 87.552 195.228892 
L 89.28 196.524142 
L 91.008 198.127365 
L 92.736 200.045224 
L 94.464 200.99703 
L 103.104 207.301799 
L 104.832 208.231627 
L 106.56 209.73746 
L 108.288 210.407953 
L 110.016 212.414145 
L 111.744 213.306101 
L 113.472 214.996554 
L 115.2 216.985945 
L 116.928 218.005494 
L 118.656 219.38168 
L 120.384 220.398033 
L 122.112 221.711492 
L 123.84 223.672919 
L 125.568 224.617675 
L 129.024 227.066978 
L 130.752 228.064644 
L 132.48 228.704448 
L 134.208 230.334974 
L 135.936 232.235106 
L 137.664 233.840606 
L 142.848 236.251812 
L 146.304 239.541799 
L 153.216 243.842434 
L 154.944 245.159319 
L 156.672 246.114394 
L 158.4 247.509781 
L 160.128 248.549819 
L 161.856 250.368085 
L 163.584 251.922858 
L 167.04 253.732067 
L 168.768 254.852386 
L 170.496 256.392369 
L 172.224 257.250903 
L 175.68 259.562942 
L 177.408 261.349407 
L 179.136 262.795147 
L 180.864 264.437592 
L 182.592 265.215187 
L 186.048 267.288778 
L 187.776 268.58477 
L 189.504 269.362366 
L 192.96 271.435953 
L 194.688 271.954349 
L 196.416 273.250338 
L 198.144 274.287134 
L 199.872 275.064726 
L 201.6 276.101513 
L 203.328 276.879104 
L 205.056 277.397499 
L 206.784 278.696399 
L 210.24 280.769989 
L 211.968 281.547586 
L 213.696 282.843581 
L 215.424 283.618225 
L 217.152 284.8349 
L 218.88 285.612482 
L 222.336 288.72281 
L 224.064 289.500384 
L 227.52 291.573918 
L 229.248 292.869874 
L 230.976 293.647435 
L 237.888 297.79439 
L 239.616 298.312748 
L 241.344 299.090292 
L 243.072 300.386172 
L 244.8 301.422797 
L 246.528 302.977715 
L 248.256 304.014148 
L 253.44 305.568672 
L 255.168 307.122509 
L 256.896 308.238856 
L 260.352 309.310682 
L 270.72 309.395833 
L 274.176 309.559297 
L 281.088 309.588289 
L 286.272 309.697722 
L 289.728 309.764502 
L 291.456 309.697722 
L 293.184 309.829648 
L 298.368 309.764502 
L 301.824 309.829648 
L 307.008 309.921024 
L 320.832 309.882838 
L 320.832 309.882838 
" style="fill:none;stroke:#9467bd;stroke-linecap:round;stroke-width:3;"/>
   </g>
   <g id="line2d_16">
    <path clip-path="url(#p9b0bcd5f7e)" d="M 46.08 206.4615 
L 47.808 207.260394 
L 51.264 207.887073 
L 52.992 208.981319 
L 54.72 209.687529 
L 68.544 209.687529 
L 70.272 210.762454 
L 72 211.120521 
L 73.728 211.809489 
L 75.456 213.872577 
L 77.184 214.558957 
L 78.912 216.613952 
L 80.64 217.980349 
L 82.368 219.018788 
L 84.096 221.059795 
L 85.824 222.292531 
L 87.552 223.734565 
L 89.28 224.356778 
L 91.008 225.511941 
L 92.736 227.238817 
L 94.464 228.442791 
L 96.192 229.273384 
L 97.92 230.41344 
L 99.648 231.241242 
L 101.376 232.37552 
L 103.104 234.069223 
L 104.832 234.631635 
L 106.56 235.864331 
L 113.472 239.413613 
L 116.928 242.280706 
L 120.384 245.823676 
L 122.112 247.212328 
L 123.84 247.917564 
L 127.296 250.731916 
L 129.024 252.835108 
L 130.752 253.89955 
L 132.48 255.519359 
L 134.208 256.368888 
L 135.936 256.958298 
L 137.664 258.134225 
L 139.392 259.046848 
L 141.12 260.53937 
L 144.576 263.209127 
L 148.032 266.499572 
L 149.76 267.86952 
L 151.488 269.832861 
L 153.216 271.478844 
L 156.672 274.52627 
L 165.312 279.399379 
L 168.768 281.991377 
L 170.496 283.028176 
L 172.224 284.324175 
L 175.68 286.397771 
L 177.408 287.693768 
L 179.136 288.730566 
L 180.864 290.285762 
L 182.592 291.06336 
L 184.32 292.359357 
L 186.048 292.877755 
L 189.504 294.951348 
L 191.232 296.506541 
L 192.96 297.284135 
L 194.688 298.320932 
L 196.416 299.61692 
L 198.144 300.135315 
L 199.872 300.912904 
L 201.6 302.46808 
L 203.328 303.764042 
L 205.056 304.282424 
L 206.784 305.060001 
L 208.512 306.615077 
L 211.968 308.088367 
L 213.696 308.347566 
L 217.152 309.37646 
L 225.792 309.408602 
L 227.52 309.539731 
L 232.704 309.62566 
L 236.16 309.729536 
L 241.344 309.816711 
L 248.256 309.847711 
L 265.536 309.93896 
L 274.176 309.963361 
L 317.376 310.063608 
L 320.832 310.037734 
L 320.832 310.037734 
" style="fill:none;stroke:#8c564b;stroke-linecap:round;stroke-width:3;"/>
   </g>
   <g id="line2d_17">
    <path clip-path="url(#p9b0bcd5f7e)" d="M 46.08 182.018809 
L 47.808 181.419111 
L 49.536 181.862315 
L 51.264 182.744471 
L 52.992 183.077532 
L 54.72 184.016659 
L 56.448 184.129383 
L 58.176 182.930047 
L 59.904 181.498116 
L 65.088 181.443083 
L 75.456 181.443083 
L 77.184 181.834136 
L 80.64 183.964345 
L 82.368 184.752249 
L 84.096 185.719286 
L 85.824 186.38503 
L 87.552 187.416594 
L 89.28 188.813967 
L 92.736 192.124477 
L 94.464 193.734999 
L 96.192 195.048981 
L 97.92 197.013646 
L 101.376 200.270434 
L 103.104 201.196803 
L 104.832 201.812716 
L 106.56 202.897624 
L 108.288 203.817842 
L 110.016 205.747965 
L 111.744 206.956923 
L 113.472 207.949717 
L 115.2 209.499769 
L 116.928 211.392944 
L 120.384 213.27343 
L 123.84 215.846515 
L 125.568 216.817872 
L 127.296 218.402185 
L 129.024 220.237605 
L 130.752 221.45661 
L 132.48 223.283821 
L 134.208 224.761232 
L 135.936 225.370808 
L 137.664 227.193867 
L 139.392 228.666899 
L 141.12 229.532528 
L 142.848 230.831379 
L 144.576 231.695618 
L 148.032 234.799329 
L 149.76 235.744146 
L 151.488 237.205529 
L 153.216 238.065101 
L 154.944 239.264337 
L 156.672 240.202265 
L 158.4 241.734528 
L 160.128 242.775408 
L 163.584 245.46799 
L 165.312 246.472089 
L 167.04 248.033653 
L 168.768 248.762495 
L 170.496 250.269429 
L 172.224 251.115605 
L 173.952 252.545978 
L 175.68 253.389313 
L 177.408 254.490834 
L 180.864 257.966237 
L 184.32 260.257862 
L 187.776 262.992674 
L 189.504 263.908398 
L 191.232 264.467456 
L 192.96 265.873433 
L 194.688 267.51887 
L 198.144 270.153242 
L 199.872 270.740155 
L 201.6 271.785118 
L 203.328 272.569068 
L 205.056 273.605864 
L 206.784 274.901861 
L 210.24 275.938658 
L 211.968 276.975454 
L 213.696 278.430575 
L 220.608 283.19623 
L 222.336 284.15781 
L 224.064 285.712972 
L 225.792 286.74973 
L 227.52 287.650629 
L 229.248 288.873351 
L 230.976 290.424074 
L 232.704 291.654874 
L 234.432 292.432412 
L 237.888 294.396535 
L 241.344 296.91401 
L 243.072 297.690312 
L 244.8 298.726936 
L 246.528 300.024105 
L 249.984 302.095871 
L 251.712 302.949553 
L 253.44 303.986186 
L 258.624 306.692552 
L 260.352 307.72817 
L 262.08 309.192338 
L 267.264 309.454088 
L 288 309.549393 
L 293.184 309.590679 
L 305.28 309.616271 
L 310.464 309.842174 
L 320.832 309.874724 
L 320.832 309.874724 
" style="fill:none;stroke:#e377c2;stroke-linecap:round;stroke-width:3;"/>
   </g>
   <g id="line2d_18">
    <path clip-path="url(#p9b0bcd5f7e)" d="M 46.08 199.408942 
L 47.808 201.183164 
L 49.536 200.463281 
L 52.992 198.515554 
L 54.72 196.924013 
L 58.176 198.272319 
L 72 198.272319 
L 73.728 198.600436 
L 77.184 199.907983 
L 78.912 201.226685 
L 80.64 202.867397 
L 82.368 203.461412 
L 84.096 204.395693 
L 87.552 205.574571 
L 89.28 206.989298 
L 91.008 207.570994 
L 92.736 208.526416 
L 94.464 210.091221 
L 96.192 211.039307 
L 97.92 212.186192 
L 99.648 212.782087 
L 101.376 214.323489 
L 103.104 215.161359 
L 104.832 215.763559 
L 106.56 217.559156 
L 108.288 219.115128 
L 110.016 219.74001 
L 115.2 222.675676 
L 116.928 224.525189 
L 118.656 225.854921 
L 122.112 227.704513 
L 123.84 229.193836 
L 127.296 231.910894 
L 129.024 233.233645 
L 130.752 235.072636 
L 132.48 235.685125 
L 134.208 236.815724 
L 135.936 237.780152 
L 141.12 241.603663 
L 142.848 243.493953 
L 146.304 245.702196 
L 148.032 246.521773 
L 149.76 247.638673 
L 151.488 248.986958 
L 153.216 249.764554 
L 154.944 250.696778 
L 156.672 251.790381 
L 158.4 253.418206 
L 160.128 254.475671 
L 161.856 255.822343 
L 167.04 258.977766 
L 168.768 260.27207 
L 170.496 261.05174 
L 172.224 262.606935 
L 173.952 263.64373 
L 175.68 264.162128 
L 177.408 265.717321 
L 182.592 268.763543 
L 184.32 270.393079 
L 186.048 271.726175 
L 189.504 273.840423 
L 191.232 274.619765 
L 192.96 275.826065 
L 196.416 277.640453 
L 198.144 278.677245 
L 199.872 279.195641 
L 201.6 280.49163 
L 203.328 281.528418 
L 205.056 282.046813 
L 206.784 283.342798 
L 208.512 284.89798 
L 210.24 286.193965 
L 213.696 288.267534 
L 215.424 289.13563 
L 218.88 291.727593 
L 220.608 292.505181 
L 222.336 293.801157 
L 225.792 295.874709 
L 227.52 297.170671 
L 229.248 297.689054 
L 230.976 298.725815 
L 232.704 299.503382 
L 236.16 302.095213 
L 237.888 302.872745 
L 241.344 305.464335 
L 243.072 306.500867 
L 246.528 308.064191 
L 249.984 309.036072 
L 251.712 309.036072 
L 253.44 309.308151 
L 260.352 309.347533 
L 282.816 309.357085 
L 284.544 309.469774 
L 293.184 309.561973 
L 301.824 309.629725 
L 313.92 309.737085 
L 320.832 309.758474 
L 320.832 309.758474 
" style="fill:none;stroke:#7f7f7f;stroke-linecap:round;stroke-width:3;"/>
   </g>
   <g id="line2d_19">
    <path clip-path="url(#p9b0bcd5f7e)" d="M 46.08 187.911478 
L 47.808 186.934195 
L 49.536 186.582631 
L 51.264 186.722664 
L 52.992 186.583596 
L 54.72 186.074507 
L 56.448 186.457427 
L 58.176 187.389385 
L 59.904 187.621251 
L 75.456 187.621251 
L 78.912 188.676696 
L 80.64 189.57957 
L 84.096 192.299229 
L 85.824 193.354717 
L 87.552 194.043207 
L 89.28 196.105449 
L 91.008 197.11103 
L 92.736 198.431812 
L 96.192 200.480055 
L 97.92 201.894455 
L 99.648 203.621898 
L 101.376 205.034285 
L 103.104 206.079527 
L 106.56 210.137151 
L 108.288 211.789203 
L 110.016 213.130775 
L 111.744 215.136699 
L 113.472 216.469502 
L 115.2 218.461648 
L 116.928 219.71208 
L 118.656 221.395447 
L 122.112 223.060176 
L 129.024 227.377047 
L 130.752 228.726536 
L 132.48 229.519197 
L 134.208 230.569623 
L 135.936 231.897759 
L 137.664 233.470658 
L 139.392 233.993911 
L 142.848 236.188812 
L 144.576 237.422566 
L 148.032 239.271865 
L 149.76 239.887921 
L 151.488 241.216483 
L 153.216 242.705916 
L 154.944 243.935229 
L 156.672 244.904362 
L 158.4 246.036536 
L 160.128 246.650043 
L 163.584 248.394607 
L 165.312 250.242372 
L 167.04 252.34661 
L 168.768 253.748119 
L 170.496 254.855469 
L 175.68 259.303591 
L 177.408 261.027951 
L 180.864 263.762609 
L 184.32 267.143751 
L 186.048 268.146531 
L 187.776 269.819014 
L 189.504 271.132103 
L 191.232 272.777874 
L 196.416 276.585674 
L 198.144 277.263898 
L 199.872 278.809652 
L 203.328 281.230472 
L 205.056 281.962564 
L 206.784 282.901573 
L 210.24 285.068015 
L 211.968 286.414673 
L 213.696 287.200963 
L 215.424 288.553553 
L 217.152 289.331143 
L 220.608 291.404714 
L 222.336 292.700691 
L 224.064 293.33396 
L 225.792 294.370736 
L 227.52 295.220154 
L 229.248 297.063093 
L 230.976 298.193217 
L 232.704 300.017184 
L 234.432 301.296468 
L 236.16 302.234131 
L 237.888 302.809064 
L 239.616 304.307507 
L 241.344 305.603234 
L 246.528 307.913409 
L 248.256 308.431607 
L 249.984 309.208501 
L 251.712 309.363913 
L 281.088 309.444375 
L 289.728 309.64289 
L 301.824 309.734484 
L 310.464 309.877356 
L 320.832 309.863112 
L 320.832 309.863112 
" style="fill:none;stroke:#bcbd22;stroke-linecap:round;stroke-width:3;"/>
   </g>
   <g id="line2d_20">
    <path clip-path="url(#p9b0bcd5f7e)" d="M 46.08 195.106585 
L 47.808 195.413625 
L 49.536 195.567222 
L 51.264 196.300749 
L 52.992 196.084004 
L 54.72 196.176722 
L 56.448 197.043205 
L 63.36 197.074321 
L 72 197.074321 
L 73.728 197.863773 
L 77.184 199.810322 
L 80.64 202.48022 
L 82.368 203.485624 
L 84.096 205.362847 
L 85.824 206.614787 
L 87.552 207.498209 
L 89.28 208.119575 
L 91.008 209.35816 
L 92.736 210.842337 
L 94.464 212.086429 
L 96.192 212.716356 
L 99.648 214.594057 
L 103.104 217.706678 
L 108.288 221.518958 
L 110.016 222.315199 
L 111.744 223.989837 
L 113.472 226.094303 
L 115.2 227.142341 
L 116.928 228.414616 
L 120.384 229.605924 
L 122.112 230.535937 
L 123.84 231.129725 
L 125.568 232.315594 
L 127.296 232.907647 
L 129.024 233.830711 
L 130.752 234.42089 
L 134.208 236.515655 
L 135.936 237.620764 
L 137.664 238.465925 
L 139.392 239.635512 
L 141.12 240.219096 
L 142.848 241.061041 
L 144.576 242.28562 
L 146.304 242.943521 
L 149.76 245.8788 
L 151.488 246.968984 
L 153.216 248.677101 
L 154.944 250.114362 
L 156.672 250.936266 
L 158.4 251.497508 
L 160.128 252.874612 
L 161.856 254.020871 
L 165.312 257.04154 
L 167.04 257.976154 
L 168.768 258.636727 
L 170.496 259.963519 
L 172.224 261.012069 
L 173.952 262.32387 
L 175.68 263.364541 
L 177.408 263.884008 
L 179.136 265.180004 
L 180.864 265.957602 
L 182.592 267.512797 
L 184.32 268.549593 
L 186.048 269.32719 
L 187.776 270.363985 
L 192.96 274.25197 
L 194.688 275.807162 
L 196.416 276.843959 
L 198.144 277.621556 
L 199.872 278.658348 
L 201.6 280.213539 
L 203.328 281.250334 
L 205.056 282.805524 
L 206.784 283.842318 
L 210.24 285.397503 
L 211.968 286.693492 
L 217.152 289.026265 
L 218.88 289.544658 
L 220.608 290.322246 
L 224.064 293.432595 
L 225.792 294.210176 
L 229.248 297.320493 
L 230.976 297.838875 
L 234.432 299.394027 
L 236.16 300.430759 
L 237.888 301.985857 
L 239.616 302.763372 
L 241.344 304.318378 
L 243.072 305.614065 
L 244.8 306.391484 
L 246.528 306.909667 
L 248.256 307.945746 
L 249.984 308.694457 
L 251.712 309.212648 
L 255.168 309.268434 
L 262.08 309.357638 
L 268.992 309.435821 
L 275.904 309.507549 
L 279.36 309.569812 
L 294.912 309.650228 
L 300.096 309.759154 
L 310.464 309.773005 
L 312.192 309.893737 
L 313.92 309.793994 
L 317.376 309.893737 
L 320.832 309.930153 
L 320.832 309.930153 
" style="fill:none;stroke:#17becf;stroke-linecap:round;stroke-width:3;"/>
   </g>
   <g id="patch_3">
    <path d="M 46.08 311.04 
L 46.08 51.84 
" style="fill:none;stroke:#535956;stroke-linecap:square;stroke-linejoin:miter;stroke-width:1.25;"/>
   </g>
   <g id="patch_4">
    <path d="M 46.08 311.04 
L 322.56 311.04 
" style="fill:none;stroke:#535956;stroke-linecap:square;stroke-linejoin:miter;stroke-width:1.25;"/>
   </g>
   <g id="text_13">
    <!-- Q0.5_W0.005_D0.5_T0.001 -->
    <defs>
     <path d="M 67.78125 -17.78125 
Q 65.140625 -18.453125 62.234375 -18.796875 
Q 59.328125 -19.140625 56.453125 -19.140625 
Q 48.296875 -19.140625 43.1875 -14.546875 
Q 38.09375 -9.96875 37.59375 -1.46875 
Q 36.96875 -1.46875 36.375 -1.46875 
Q 35.796875 -1.46875 35.359375 -1.46875 
Q 27.984375 -1.46875 22.046875 1.046875 
Q 16.109375 3.5625 11.921875 8.40625 
Q 7.71875 13.234375 5.46875 20.3125 
Q 3.21875 27.390625 3.21875 36.328125 
Q 3.21875 45.515625 5.484375 52.4375 
Q 7.765625 59.375 11.96875 64.359375 
Q 16.15625 69.1875 22.09375 71.703125 
Q 28.03125 74.21875 35.359375 74.21875 
Q 42.78125 74.21875 48.734375 71.625 
Q 54.6875 69.046875 58.796875 64.359375 
Q 62.9375 59.578125 65.234375 52.484375 
Q 67.53125 45.40625 67.53125 36.328125 
Q 67.53125 22.21875 62.015625 13.03125 
Q 56.5 3.859375 46.921875 0.59375 
Q 47.171875 -2.15625 47.875 -4.328125 
Q 48.578125 -6.5 49.703125 -7.765625 
Q 51.03125 -9.28125 52.90625 -9.984375 
Q 54.78125 -10.6875 58.0625 -10.6875 
Q 60.015625 -10.6875 62.640625 -10.078125 
Q 65.28125 -9.46875 66.453125 -8.984375 
L 67.78125 -8.984375 
z
M 57.46875 36.328125 
Q 57.46875 43.5625 55.90625 49.125 
Q 54.34375 54.6875 51.515625 58.34375 
Q 48.640625 62.109375 44.5625 63.984375 
Q 40.484375 65.875 35.40625 65.875 
Q 30.125 65.875 26.1875 64.03125 
Q 22.265625 62.203125 19.234375 58.34375 
Q 16.359375 54.640625 14.8125 49.015625 
Q 13.28125 43.40625 13.28125 36.328125 
Q 13.28125 22.015625 19.28125 14.390625 
Q 25.296875 6.78125 35.40625 6.78125 
Q 45.515625 6.78125 51.484375 14.390625 
Q 57.46875 22.015625 57.46875 36.328125 
z
" id="Tahoma-51"/>
     <path d="M 20.953125 0 
L 9.28125 0 
L 9.28125 13.921875 
L 20.953125 13.921875 
z
" id="Tahoma-2e"/>
     <path d="M 55.375 -14.65625 
L -0.78125 -14.65625 
L -0.78125 -8.296875 
L 55.375 -8.296875 
z
" id="Tahoma-5f"/>
     <path d="M 88.921875 72.703125 
L 70.65625 0 
L 59.765625 0 
L 44.96875 60.359375 
L 30.515625 0 
L 19.875 0 
L 1.265625 72.703125 
L 11.1875 72.703125 
L 25.828125 12.25 
L 40.375 72.703125 
L 50.203125 72.703125 
L 64.890625 11.671875 
L 79.4375 72.703125 
z
" id="Tahoma-57"/>
     <path d="M 64.703125 36.28125 
Q 64.703125 26.3125 60.671875 18.296875 
Q 56.640625 10.296875 49.859375 5.8125 
Q 44.34375 2.34375 38.640625 1.171875 
Q 32.953125 0 24.125 0 
L 7.375 0 
L 7.375 72.703125 
L 23.921875 72.703125 
Q 34.1875 72.703125 40.015625 71.15625 
Q 45.84375 69.625 49.953125 66.9375 
Q 56.984375 62.3125 60.84375 54.609375 
Q 64.703125 46.921875 64.703125 36.28125 
z
M 54.640625 36.421875 
Q 54.640625 44.828125 51.859375 50.75 
Q 49.078125 56.6875 43.609375 60.015625 
Q 39.75 62.359375 35.34375 63.375 
Q 30.953125 64.40625 24.421875 64.40625 
L 17.046875 64.40625 
L 17.046875 8.296875 
L 24.421875 8.296875 
Q 30.859375 8.296875 35.6875 9.328125 
Q 40.53125 10.359375 44.53125 13.140625 
Q 49.5625 16.546875 52.09375 22.234375 
Q 54.640625 27.9375 54.640625 36.421875 
z
" id="Tahoma-44"/>
    </defs>
    <g style="fill:#535956;" transform="translate(81.234938 45.84)scale(0.168 -0.168)">
     <use xlink:href="#Tahoma-51"/>
     <use x="70.751953" xlink:href="#Tahoma-30"/>
     <use x="125.341797" xlink:href="#Tahoma-2e"/>
     <use x="155.615234" xlink:href="#Tahoma-35"/>
     <use x="210.205078" xlink:href="#Tahoma-5f"/>
     <use x="264.794922" xlink:href="#Tahoma-57"/>
     <use x="354.980469" xlink:href="#Tahoma-30"/>
     <use x="409.570312" xlink:href="#Tahoma-2e"/>
     <use x="439.84375" xlink:href="#Tahoma-30"/>
     <use x="494.433594" xlink:href="#Tahoma-30"/>
     <use x="549.023438" xlink:href="#Tahoma-35"/>
     <use x="603.613281" xlink:href="#Tahoma-5f"/>
     <use x="658.203125" xlink:href="#Tahoma-44"/>
     <use x="726.025391" xlink:href="#Tahoma-30"/>
     <use x="780.615234" xlink:href="#Tahoma-2e"/>
     <use x="810.888672" xlink:href="#Tahoma-35"/>
     <use x="865.478516" xlink:href="#Tahoma-5f"/>
     <use x="920.068359" xlink:href="#Tahoma-54"/>
     <use x="978.466797" xlink:href="#Tahoma-30"/>
     <use x="1033.056641" xlink:href="#Tahoma-2e"/>
     <use x="1063.330078" xlink:href="#Tahoma-30"/>
     <use x="1117.919922" xlink:href="#Tahoma-30"/>
     <use x="1172.509766" xlink:href="#Tahoma-31"/>
    </g>
   </g>
   <g id="legend_1">
    <g id="line2d_21">
     <path style="fill:none;stroke:#1f77b4;stroke-linecap:round;stroke-width:3;"/>
    </g>
    <g id="line2d_22"/>
    <g id="text_14">
     <!-- Swarm 1 -->
     <defs>
      <path d="M 27.640625 -1.3125 
Q 19.734375 -1.3125 14.1875 0.3125 
Q 8.640625 1.953125 3.765625 4.34375 
L 3.765625 16.453125 
L 4.4375 16.453125 
Q 9.234375 11.96875 15.28125 9.5 
Q 21.34375 7.03125 26.953125 7.03125 
Q 34.96875 7.03125 39.0625 10.375 
Q 43.171875 13.71875 43.171875 19.1875 
Q 43.171875 23.53125 41.015625 26.265625 
Q 38.875 29 34.1875 30.328125 
Q 30.8125 31.296875 28.03125 31.921875 
Q 25.25 32.5625 21.046875 33.640625 
Q 17.28125 34.625 14.296875 36.125 
Q 11.328125 37.640625 9.03125 40.09375 
Q 6.78125 42.484375 5.53125 45.71875 
Q 4.296875 48.96875 4.296875 53.21875 
Q 4.296875 62.0625 11.171875 68.046875 
Q 18.0625 74.03125 28.765625 74.03125 
Q 34.859375 74.03125 40.296875 72.796875 
Q 45.75 71.578125 50.390625 69.34375 
L 50.390625 57.765625 
L 49.65625 57.765625 
Q 46.1875 60.9375 40.765625 63.296875 
Q 35.359375 65.671875 29.390625 65.671875 
Q 22.65625 65.671875 18.5 62.515625 
Q 14.359375 59.375 14.359375 54.25 
Q 14.359375 49.609375 16.796875 46.875 
Q 19.234375 44.140625 23.875 42.875 
Q 26.953125 42.046875 31.390625 40.984375 
Q 35.84375 39.9375 38.765625 39.0625 
Q 46.296875 36.765625 49.75 32.125 
Q 53.21875 27.484375 53.21875 20.703125 
Q 53.21875 16.453125 51.484375 12.296875 
Q 49.75 8.15625 46.625 5.28125 
Q 43.109375 2.09375 38.6875 0.390625 
Q 34.28125 -1.3125 27.640625 -1.3125 
z
" id="Tahoma-53"/>
      <path d="M 72.75 54.546875 
L 58.9375 0 
L 50.4375 0 
L 37.109375 42.046875 
L 23.875 0 
L 15.4375 0 
L 1.46875 54.546875 
L 11.03125 54.546875 
L 20.65625 12.3125 
L 33.59375 54.546875 
L 41.15625 54.546875 
L 54.4375 12.3125 
L 63.53125 54.546875 
z
" id="Tahoma-77"/>
     </defs>
     <g style="fill:#535956;" transform="translate(368.384 -11.11625)scale(0.1 -0.1)">
      <use xlink:href="#Tahoma-53"/>
      <use x="55.712891" xlink:href="#Tahoma-77"/>
      <use x="129.931641" xlink:href="#Tahoma-61"/>
      <use x="182.421875" xlink:href="#Tahoma-72"/>
      <use x="218.457031" xlink:href="#Tahoma-6d"/>
      <use x="302.441406" xlink:href="#Tahoma-20"/>
      <use x="333.691406" xlink:href="#Tahoma-31"/>
     </g>
    </g>
    <g id="line2d_23">
     <path d="M 340.384 -0.005313 
L 360.384 -0.005313 
" style="fill:none;stroke:#ff7f0e;stroke-linecap:round;stroke-width:3;"/>
    </g>
    <g id="line2d_24"/>
    <g id="text_15">
     <!-- Swarm 2 -->
     <g style="fill:#535956;" transform="translate(368.384 3.494687)scale(0.1 -0.1)">
      <use xlink:href="#Tahoma-53"/>
      <use x="55.712891" xlink:href="#Tahoma-77"/>
      <use x="129.931641" xlink:href="#Tahoma-61"/>
      <use x="182.421875" xlink:href="#Tahoma-72"/>
      <use x="218.457031" xlink:href="#Tahoma-6d"/>
      <use x="302.441406" xlink:href="#Tahoma-20"/>
      <use x="333.691406" xlink:href="#Tahoma-32"/>
     </g>
    </g>
    <g id="line2d_25">
     <path d="M 340.384 14.605625 
L 360.384 14.605625 
" style="fill:none;stroke:#2ca02c;stroke-linecap:round;stroke-width:3;"/>
    </g>
    <g id="line2d_26"/>
    <g id="text_16">
     <!-- Swarm 3 -->
     <g style="fill:#535956;" transform="translate(368.384 18.105625)scale(0.1 -0.1)">
      <use xlink:href="#Tahoma-53"/>
      <use x="55.712891" xlink:href="#Tahoma-77"/>
      <use x="129.931641" xlink:href="#Tahoma-61"/>
      <use x="182.421875" xlink:href="#Tahoma-72"/>
      <use x="218.457031" xlink:href="#Tahoma-6d"/>
      <use x="302.441406" xlink:href="#Tahoma-20"/>
      <use x="333.691406" xlink:href="#Tahoma-33"/>
     </g>
    </g>
    <g id="line2d_27">
     <path d="M 340.384 29.216562 
L 360.384 29.216562 
" style="fill:none;stroke:#d62728;stroke-linecap:round;stroke-width:3;"/>
    </g>
    <g id="line2d_28"/>
    <g id="text_17">
     <!-- Swarm 4 -->
     <g style="fill:#535956;" transform="translate(368.384 32.716562)scale(0.1 -0.1)">
      <use xlink:href="#Tahoma-53"/>
      <use x="55.712891" xlink:href="#Tahoma-77"/>
      <use x="129.931641" xlink:href="#Tahoma-61"/>
      <use x="182.421875" xlink:href="#Tahoma-72"/>
      <use x="218.457031" xlink:href="#Tahoma-6d"/>
      <use x="302.441406" xlink:href="#Tahoma-20"/>
      <use x="333.691406" xlink:href="#Tahoma-34"/>
     </g>
    </g>
    <g id="line2d_29">
     <path d="M 340.384 43.8275 
L 360.384 43.8275 
" style="fill:none;stroke:#9467bd;stroke-linecap:round;stroke-width:3;"/>
    </g>
    <g id="line2d_30"/>
    <g id="text_18">
     <!-- Swarm 5 -->
     <g style="fill:#535956;" transform="translate(368.384 47.3275)scale(0.1 -0.1)">
      <use xlink:href="#Tahoma-53"/>
      <use x="55.712891" xlink:href="#Tahoma-77"/>
      <use x="129.931641" xlink:href="#Tahoma-61"/>
      <use x="182.421875" xlink:href="#Tahoma-72"/>
      <use x="218.457031" xlink:href="#Tahoma-6d"/>
      <use x="302.441406" xlink:href="#Tahoma-20"/>
      <use x="333.691406" xlink:href="#Tahoma-35"/>
     </g>
    </g>
    <g id="line2d_31">
     <path d="M 340.384 58.438437 
L 360.384 58.438437 
" style="fill:none;stroke:#8c564b;stroke-linecap:round;stroke-width:3;"/>
    </g>
    <g id="line2d_32"/>
    <g id="text_19">
     <!-- Swarm 6 -->
     <defs>
      <path d="M 51.3125 23.578125 
Q 51.3125 17.96875 49.453125 13.234375 
Q 47.609375 8.5 44.484375 5.328125 
Q 41.21875 1.953125 37.15625 0.21875 
Q 33.109375 -1.515625 28.21875 -1.515625 
Q 23.296875 -1.515625 19.265625 0.140625 
Q 15.234375 1.8125 12.15625 5.078125 
Q 8.40625 9.03125 6.28125 15.640625 
Q 4.15625 22.265625 4.15625 31.9375 
Q 4.15625 41.40625 6.109375 49.046875 
Q 8.0625 56.6875 12.109375 62.359375 
Q 16.0625 67.875 22.3125 70.96875 
Q 28.5625 74.078125 36.765625 74.078125 
Q 39.203125 74.078125 41.296875 73.828125 
Q 43.40625 73.578125 45.015625 73.046875 
L 45.015625 63.71875 
L 44.578125 63.71875 
Q 43.265625 64.453125 40.765625 65.0625 
Q 38.28125 65.671875 35.453125 65.671875 
Q 26.375 65.671875 20.78125 59.546875 
Q 15.1875 53.421875 14.15625 41.359375 
Q 17.625 43.796875 21.28125 45.109375 
Q 24.953125 46.4375 29.296875 46.4375 
Q 33.546875 46.4375 36.734375 45.578125 
Q 39.9375 44.734375 43.40625 42.140625 
Q 47.40625 39.109375 49.359375 34.46875 
Q 51.3125 29.828125 51.3125 23.578125 
z
M 41.40625 23.1875 
Q 41.40625 27.6875 40.234375 30.703125 
Q 39.0625 33.734375 36.421875 35.890625 
Q 34.515625 37.453125 32.09375 37.9375 
Q 29.6875 38.421875 27.15625 38.421875 
Q 23.734375 38.421875 20.5 37.390625 
Q 17.28125 36.375 14.15625 34.421875 
Q 14.0625 33.34375 14.015625 32.34375 
Q 13.96875 31.34375 13.96875 29.828125 
Q 13.96875 22.265625 15.453125 17.625 
Q 16.9375 12.984375 19.140625 10.59375 
Q 21.234375 8.296875 23.453125 7.375 
Q 25.6875 6.453125 28.265625 6.453125 
Q 34.125 6.453125 37.765625 10.640625 
Q 41.40625 14.84375 41.40625 23.1875 
z
" id="Tahoma-36"/>
     </defs>
     <g style="fill:#535956;" transform="translate(368.384 61.938437)scale(0.1 -0.1)">
      <use xlink:href="#Tahoma-53"/>
      <use x="55.712891" xlink:href="#Tahoma-77"/>
      <use x="129.931641" xlink:href="#Tahoma-61"/>
      <use x="182.421875" xlink:href="#Tahoma-72"/>
      <use x="218.457031" xlink:href="#Tahoma-6d"/>
      <use x="302.441406" xlink:href="#Tahoma-20"/>
      <use x="333.691406" xlink:href="#Tahoma-36"/>
     </g>
    </g>
    <g id="line2d_33">
     <path d="M 340.384 73.049375 
L 360.384 73.049375 
" style="fill:none;stroke:#e377c2;stroke-linecap:round;stroke-width:3;"/>
    </g>
    <g id="line2d_34"/>
    <g id="text_20">
     <!-- Swarm 7 -->
     <defs>
      <path d="M 50.984375 61.8125 
L 19.53125 0 
L 9.125 0 
L 42.4375 64.15625 
L 4.828125 64.15625 
L 4.828125 72.703125 
L 50.984375 72.703125 
z
" id="Tahoma-37"/>
     </defs>
     <g style="fill:#535956;" transform="translate(368.384 76.549375)scale(0.1 -0.1)">
      <use xlink:href="#Tahoma-53"/>
      <use x="55.712891" xlink:href="#Tahoma-77"/>
      <use x="129.931641" xlink:href="#Tahoma-61"/>
      <use x="182.421875" xlink:href="#Tahoma-72"/>
      <use x="218.457031" xlink:href="#Tahoma-6d"/>
      <use x="302.441406" xlink:href="#Tahoma-20"/>
      <use x="333.691406" xlink:href="#Tahoma-37"/>
     </g>
    </g>
    <g id="line2d_35">
     <path d="M 340.384 87.660312 
L 360.384 87.660312 
" style="fill:none;stroke:#7f7f7f;stroke-linecap:round;stroke-width:3;"/>
    </g>
    <g id="line2d_36"/>
    <g id="text_21">
     <!-- Swarm 8 -->
     <defs>
      <path d="M 39.59375 55.765625 
Q 39.59375 60.640625 36.328125 63.90625 
Q 33.0625 67.1875 27.25 67.1875 
Q 21.921875 67.1875 18.53125 64.25 
Q 15.140625 61.328125 15.140625 56.34375 
Q 15.140625 52.734375 16.875 50.234375 
Q 18.609375 47.75 22.078125 45.75 
Q 23.578125 44.921875 26.671875 43.453125 
Q 29.78125 42 32.328125 41.15625 
Q 36.578125 44.4375 38.078125 47.875 
Q 39.59375 51.3125 39.59375 55.765625 
z
M 40.96875 19.34375 
Q 40.96875 23.828125 39.203125 26.46875 
Q 37.453125 29.109375 32.421875 31.84375 
Q 30.765625 32.765625 28 33.828125 
Q 25.25 34.90625 21.78125 36.375 
Q 17.71875 33.6875 15.5625 29.75 
Q 13.421875 25.828125 13.421875 20.796875 
Q 13.421875 14.203125 17.40625 9.90625 
Q 21.390625 5.609375 27.390625 5.609375 
Q 33.546875 5.609375 37.25 9.296875 
Q 40.96875 12.984375 40.96875 19.34375 
z
M 27.296875 -1.65625 
Q 21.875 -1.65625 17.421875 -0.046875 
Q 12.984375 1.5625 9.859375 4.59375 
Q 6.78125 7.515625 5.1875 11.546875 
Q 3.609375 15.578125 3.609375 20.0625 
Q 3.609375 25.984375 6.75 30.9375 
Q 9.90625 35.890625 15.921875 38.8125 
L 15.921875 39.109375 
Q 10.546875 42.234375 7.953125 45.9375 
Q 5.375 49.65625 5.375 55.21875 
Q 5.375 63.421875 11.578125 68.890625 
Q 17.78125 74.359375 27.296875 74.359375 
Q 37.203125 74.359375 43.1875 69.15625 
Q 49.171875 63.96875 49.171875 55.859375 
Q 49.171875 50.984375 46.3125 46.1875 
Q 43.453125 41.40625 38.09375 38.71875 
L 38.09375 38.421875 
Q 44.4375 35.453125 47.703125 31.203125 
Q 50.984375 26.953125 50.984375 20.265625 
Q 50.984375 10.9375 44.21875 4.640625 
Q 37.453125 -1.65625 27.296875 -1.65625 
z
" id="Tahoma-38"/>
     </defs>
     <g style="fill:#535956;" transform="translate(368.384 91.160312)scale(0.1 -0.1)">
      <use xlink:href="#Tahoma-53"/>
      <use x="55.712891" xlink:href="#Tahoma-77"/>
      <use x="129.931641" xlink:href="#Tahoma-61"/>
      <use x="182.421875" xlink:href="#Tahoma-72"/>
      <use x="218.457031" xlink:href="#Tahoma-6d"/>
      <use x="302.441406" xlink:href="#Tahoma-20"/>
      <use x="333.691406" xlink:href="#Tahoma-38"/>
     </g>
    </g>
    <g id="line2d_37">
     <path d="M 340.384 102.27125 
L 360.384 102.27125 
" style="fill:none;stroke:#bcbd22;stroke-linecap:round;stroke-width:3;"/>
    </g>
    <g id="line2d_38"/>
    <g id="text_22">
     <!-- Swarm 9 -->
     <defs>
      <path d="M 40.625 42.828125 
Q 40.625 50.25 39.25 54.90625 
Q 37.890625 59.578125 35.5 62.109375 
Q 33.34375 64.453125 31.140625 65.328125 
Q 28.953125 66.21875 26.3125 66.21875 
Q 20.3125 66.21875 16.75 61.921875 
Q 13.1875 57.625 13.1875 49.46875 
Q 13.1875 44.875 14.359375 41.890625 
Q 15.53125 38.921875 18.171875 36.765625 
Q 20.015625 35.25 22.359375 34.734375 
Q 24.703125 34.234375 27.390625 34.234375 
Q 30.515625 34.234375 34.125 35.328125 
Q 37.75 36.421875 40.4375 38.234375 
Q 40.484375 38.96875 40.546875 40.15625 
Q 40.625 41.359375 40.625 42.828125 
z
M 3.265625 49.078125 
Q 3.265625 54.6875 5.09375 59.328125 
Q 6.9375 63.96875 10.109375 67.328125 
Q 13.140625 70.5625 17.5 72.359375 
Q 21.875 74.171875 26.375 74.171875 
Q 31.390625 74.171875 35.46875 72.484375 
Q 39.546875 70.796875 42.53125 67.625 
Q 46.296875 63.625 48.359375 57.125 
Q 50.4375 50.640625 50.4375 40.71875 
Q 50.4375 31.6875 48.40625 23.609375 
Q 46.390625 15.53125 42.4375 10.203125 
Q 38.234375 4.546875 32.34375 1.5625 
Q 26.46875 -1.421875 17.828125 -1.421875 
Q 15.875 -1.421875 13.671875 -1.203125 
Q 11.46875 -0.984375 9.578125 -0.390625 
L 9.578125 8.9375 
L 10.0625 8.9375 
Q 11.28125 8.25 13.859375 7.609375 
Q 16.453125 6.984375 19.140625 6.984375 
Q 28.71875 6.984375 34.1875 13.28125 
Q 39.65625 19.578125 40.375 31.296875 
Q 36.46875 28.65625 32.921875 27.4375 
Q 29.390625 26.21875 25.25 26.21875 
Q 21.1875 26.21875 17.859375 27.09375 
Q 14.546875 27.984375 11.1875 30.515625 
Q 7.28125 33.5 5.265625 38.0625 
Q 3.265625 42.625 3.265625 49.078125 
z
" id="Tahoma-39"/>
     </defs>
     <g style="fill:#535956;" transform="translate(368.384 105.77125)scale(0.1 -0.1)">
      <use xlink:href="#Tahoma-53"/>
      <use x="55.712891" xlink:href="#Tahoma-77"/>
      <use x="129.931641" xlink:href="#Tahoma-61"/>
      <use x="182.421875" xlink:href="#Tahoma-72"/>
      <use x="218.457031" xlink:href="#Tahoma-6d"/>
      <use x="302.441406" xlink:href="#Tahoma-20"/>
      <use x="333.691406" xlink:href="#Tahoma-39"/>
     </g>
    </g>
    <g id="line2d_39">
     <path d="M 340.384 116.882187 
L 360.384 116.882187 
" style="fill:none;stroke:#17becf;stroke-linecap:round;stroke-width:3;"/>
    </g>
    <g id="line2d_40"/>
    <g id="text_23">
     <!-- Swarm 10 -->
     <g style="fill:#535956;" transform="translate(368.384 120.382187)scale(0.1 -0.1)">
      <use xlink:href="#Tahoma-53"/>
      <use x="55.712891" xlink:href="#Tahoma-77"/>
      <use x="129.931641" xlink:href="#Tahoma-61"/>
      <use x="182.421875" xlink:href="#Tahoma-72"/>
      <use x="218.457031" xlink:href="#Tahoma-6d"/>
      <use x="302.441406" xlink:href="#Tahoma-20"/>
      <use x="333.691406" xlink:href="#Tahoma-31"/>
      <use x="388.28125" xlink:href="#Tahoma-30"/>
     </g>
    </g>
   </g>
  </g>
 </g>
 <defs>
  <clipPath id="p9b0bcd5f7e">
   <rect height="259.2" width="276.48" x="46.08" y="51.84"/>
  </clipPath>
 </defs>
</svg>
